HIERARCHY
ROOT joint_Root
{
	OFFSET 0.0 0.0 0.0
	CHANNELS 6 Xposition Yposition Zposition Zrotation Xrotation Yrotation 
	JOINT Hips
	{
		OFFSET -17.1583 93.1646 452.98
		CHANNELS 6 Xposition Yposition Zposition Zrotation Xrotation Yrotation 
		JOINT Spine
		{
			OFFSET 15.7357 0.0 0.0
			CHANNELS 6 Xposition Yposition Zposition Zrotation Xrotation Yrotation 
			JOINT Chest
			{
				OFFSET 8.98455 -0.406207 0.0
				CHANNELS 6 Xposition Yposition Zposition Zrotation Xrotation Yrotation 
				JOINT Neck
				{
					OFFSET 16.3773 0.0 0.0
					CHANNELS 6 Xposition Yposition Zposition Zrotation Xrotation Yrotation 
					JOINT Head
					{
						OFFSET 6.45672 0.0 0.0
						CHANNELS 6 Xposition Yposition Zposition Zrotation Xrotation Yrotation 
						End Site
						{
							OFFSET 0.0 0.0 0.0
						}
					}
				}
				JOINT Shoulder_L
				{
					OFFSET 12.9942 -0.242716 4.98039
					CHANNELS 6 Xposition Yposition Zposition Zrotation Xrotation Yrotation 
					JOINT UpperArm_L
					{
						OFFSET 5.34809 0.0 0.0
						CHANNELS 6 Xposition Yposition Zposition Zrotation Xrotation Yrotation 
						JOINT LowerArm_L
						{
							OFFSET 24.3286 1.87007e-05 0.0
							CHANNELS 6 Xposition Yposition Zposition Zrotation Xrotation Yrotation 
							JOINT Hand_L
							{
								OFFSET 22.2916 0.0 0.0
								CHANNELS 6 Xposition Yposition Zposition Zrotation Xrotation Yrotation 
								End Site
								{
									OFFSET 0.0 0.0 0.0
								}
							}
						}
					}
				}
				JOINT Shoulder_R
				{
					OFFSET 12.9945 -0.242716 -4.98039
					CHANNELS 6 Xposition Yposition Zposition Zrotation Xrotation Yrotation 
					JOINT UpperArm_R
					{
						OFFSET -5.34813 0.0 0.0
						CHANNELS 6 Xposition Yposition Zposition Zrotation Xrotation Yrotation 
						JOINT LowerArm_R
						{
							OFFSET -24.3289 0.000322201 0.0
							CHANNELS 6 Xposition Yposition Zposition Zrotation Xrotation Yrotation 
							JOINT Hand_R
							{
								OFFSET -22.2915 -0.000108084 0.0
								CHANNELS 6 Xposition Yposition Zposition Zrotation Xrotation Yrotation 
								End Site
								{
									OFFSET 0.0 0.0 0.0
								}
							}
						}
					}
				}
			}
		}
		JOINT UpperLeg_L
		{
			OFFSET -2.19248 -6.46944 0.0
			CHANNELS 6 Xposition Yposition Zposition Zrotation Xrotation Yrotation 
			JOINT LowerLeg_L
			{
				OFFSET 39.0811 0.0 -1.23785e-05
				CHANNELS 6 Xposition Yposition Zposition Zrotation Xrotation Yrotation 
				JOINT Foot_L
				{
					OFFSET 40.9854 0.0 -1.26872e-05
					CHANNELS 6 Xposition Yposition Zposition Zrotation Xrotation Yrotation 
					JOINT Toes_L
					{
						OFFSET 11.7543 0.0 0.0
						CHANNELS 6 Xposition Yposition Zposition Zrotation Xrotation Yrotation 
						End Site
						{
							OFFSET 0.0 0.0 0.0
						}
					}
				}
			}
		}
		JOINT UpperLeg_R
		{
			OFFSET -2.19251 6.46944 0.0
			CHANNELS 6 Xposition Yposition Zposition Zrotation Xrotation Yrotation 
			JOINT LowerLeg_R
			{
				OFFSET -39.0811 -0.00228153 -0.0401928
				CHANNELS 6 Xposition Yposition Zposition Zrotation Xrotation Yrotation 
				JOINT Foot_R
				{
					OFFSET -40.9854 0.0 0.0
					CHANNELS 6 Xposition Yposition Zposition Zrotation Xrotation Yrotation 
					JOINT Toes_R
					{
						OFFSET -11.7543 0.0 0.0
						CHANNELS 6 Xposition Yposition Zposition Zrotation Xrotation Yrotation 
						End Site
						{
							OFFSET 0.0 0.0 0.0
						}
					}
				}
			}
		}
	}
}
MOTION
Frames:	9
Frame Time:	0.0333333
0.000000 0.000000 0.000000 0.000000 0.000000 -0.000000 0.257878 93.039300 -0.703214 86.754400 -2.271690 -0.347666 15.735700 0.000005 -0.000001 79.271800 87.818900 -77.383000 8.984550 -0.406207 -0.000000 -3.461130 -0.996536 3.748550 16.377300 -0.000001 -0.000001 4.578570 3.990980 -1.253590 6.456720 -0.000001 -0.000000 4.116130 5.394330 -6.400790 12.994200 -0.242716 4.980390 -92.638900 8.269310 -72.231800 5.348090 -0.000007 -0.000001 -73.272400 27.944100 0.817583 24.328600 0.000019 0.000005 12.981400 28.524200 -25.768700 22.291600 -0.000001 0.000005 -3.229100 5.034920 6.567630 12.994500 -0.242716 -4.980390 88.677200 4.230150 -72.617300 -5.348130 -0.000001 -0.000004 -71.932700 17.120000 -2.680380 -24.328900 0.000322 -0.000009 0.602847 1.716040 -19.391000 -22.291500 -0.000108 -0.000004 5.360450 5.257610 1.230950 -2.192480 -6.469440 -0.000000 -177.082000 -1.310600 -3.690990 39.081100 -0.000007 -0.000012 0.188282 -0.544996 19.059000 40.985400 -0.000006 -0.000013 3.047610 7.699310 -71.098000 11.754300 -0.000000 0.000003 0.000214 0.163947 -9.927370 -2.192510 6.469440 -0.000001 -175.607000 4.078970 -179.397000 -39.081100 -0.002282 -0.040193 0.019676 -0.078652 11.736500 -40.985400 0.000008 0.000006 -1.804850 3.845940 -67.781300 -11.754300 -0.000006 -0.000006 -0.012639 0.290064 -4.783010
0.000000 0.000000 0.000000 0.000000 0.000000 -0.000000 0.230720 93.050000 -0.757417 86.723200 -2.209370 -0.402569 15.735700 0.000005 -0.000001 78.749000 87.821500 -76.865700 8.984550 -0.406207 -0.000000 -3.473250 -1.034240 3.736230 16.377300 -0.000001 -0.000001 4.537060 3.950390 -1.197980 6.456720 -0.000001 -0.000000 3.953150 5.389280 -6.319820 12.994200 -0.242716 4.980390 -92.635700 8.242990 -72.199200 5.348090 -0.000007 -0.000001 -73.256800 27.970000 0.739300 24.328600 0.000019 0.000005 12.995200 28.541600 -25.780800 22.291600 -0.000001 0.000005 -3.206490 5.036380 6.535900 12.994500 -0.242716 -4.980390 88.682500 4.204500 -72.583600 -5.348130 -0.000001 -0.000004 -71.645600 16.944600 -2.718650 -24.328900 0.000322 -0.000009 0.675260 1.865360 -19.933000 -22.291500 -0.000108 -0.000004 5.169710 5.253560 1.338540 -2.192480 -6.469440 -0.000000 -177.023000 -1.324260 -3.803150 39.081100 -0.000007 -0.000012 0.188630 -0.545639 19.070900 40.985400 -0.000006 -0.000013 3.030310 7.768520 -71.077900 11.754300 -0.000000 0.000003 0.000107 0.165803 -9.852030 -2.192510 6.469440 -0.000001 -175.554000 4.064170 -179.446000 -39.081100 -0.002282 -0.040193 0.018409 -0.073058 11.657400 -40.985400 0.000008 0.000006 -1.933530 3.797940 -67.712600 -11.754300 -0.000006 -0.000006 -0.013079 0.293030 -4.661470
0.000000 0.000000 0.000000 0.000000 0.000000 -0.000000 0.207056 93.057500 -0.797065 86.750400 -2.161830 -0.434286 15.735700 0.000005 -0.000001 78.608500 87.815900 -76.758100 8.984550 -0.406207 -0.000000 -3.464540 -1.043580 3.670320 16.377300 -0.000001 -0.000001 4.453290 3.938030 -1.114740 6.456720 -0.000001 -0.000000 3.795940 5.402290 -6.158010 12.994200 -0.242716 4.980390 -92.611800 8.179070 -72.222000 5.348090 -0.000007 -0.000001 -73.305100 27.922700 0.693145 24.328600 0.000019 0.000005 12.941400 28.401400 -25.785700 22.291600 -0.000001 0.000005 -3.151710 5.032790 6.614180 12.994500 -0.242716 -4.980390 88.674700 4.221650 -72.553200 -5.348130 -0.000001 -0.000004 -71.291600 16.547800 -2.654400 -24.328900 0.000322 -0.000009 0.764082 2.012890 -20.817600 -22.291500 -0.000108 -0.000004 4.809880 5.249940 1.434190 -2.192480 -6.469440 -0.000000 -177.034000 -1.338360 -3.846900 39.081100 -0.000007 -0.000012 0.188205 -0.545717 19.028400 40.985400 -0.000006 -0.000013 3.013710 7.800060 -71.051100 11.754300 -0.000000 0.000003 0.000193 0.164307 -9.912760 -2.192510 6.469440 -0.000001 -175.561000 4.133460 -179.490000 -39.081100 -0.002282 -0.040193 0.018238 -0.072459 11.621700 -40.985400 0.000008 0.000006 -1.874540 3.823340 -67.658400 -11.754300 -0.000006 -0.000006 -0.012833 0.291376 -4.729240
0.000000 0.000000 0.000000 0.000000 0.000000 -0.000000 0.172556 93.061300 -0.849320 86.728800 -2.167940 -0.461997 15.735700 0.000005 -0.000001 78.347800 87.800800 -76.499000 8.984550 -0.406207 -0.000000 -3.438670 -1.068560 3.666530 16.377300 -0.000001 -0.000001 4.333550 3.929960 -1.049000 6.456720 -0.000001 -0.000000 3.631310 5.428270 -5.971860 12.994200 -0.242716 4.980390 -92.607800 8.165380 -72.220400 5.348090 -0.000007 -0.000001 -73.329400 27.908000 0.671540 24.328600 0.000019 0.000005 12.905300 28.314200 -25.784100 22.291600 -0.000001 0.000005 -3.183340 5.033140 6.606560 12.994500 -0.242716 -4.980390 88.685100 4.189160 -72.556500 -5.348130 -0.000001 -0.000004 -70.935300 15.754400 -2.610090 -24.328900 0.000322 -0.000009 0.821968 2.048810 -21.891600 -22.291500 -0.000108 -0.000004 4.710810 5.265240 1.026870 -2.192480 -6.469440 -0.000000 -176.983000 -1.266460 -3.931650 39.081100 -0.000007 -0.000012 0.188445 -0.545383 19.061800 40.985400 -0.000006 -0.000013 2.987090 7.823540 -70.997100 11.754300 -0.000000 0.000003 0.000151 0.165048 -9.882690 -2.192510 6.469440 -0.000001 -175.507000 4.107220 -179.558000 -39.081100 -0.002282 -0.040193 0.018297 -0.072768 11.617600 -40.985400 0.000008 0.000006 -1.872660 3.779690 -67.604100 -11.754300 -0.000006 -0.000006 -0.012887 0.291739 -4.714380
0.000000 0.000000 0.000000 0.000000 0.000000 -0.000000 0.153376 93.072500 -0.889825 86.741300 -2.157360 -0.472780 15.735700 0.000005 -0.000001 78.154100 87.784700 -76.326300 8.984550 -0.406207 -0.000000 -3.410110 -1.087210 3.624270 16.377300 -0.000001 -0.000001 4.178940 3.897740 -0.924421 6.456720 -0.000001 -0.000000 3.483610 5.438030 -5.741550 12.994200 -0.242716 4.980390 -92.589300 8.115810 -72.238300 5.348090 -0.000007 -0.000001 -73.380000 27.847600 0.678149 24.328600 0.000019 0.000005 13.020700 28.475500 -25.874100 22.291600 -0.000001 0.000005 -3.153310 5.033350 6.601900 12.994500 -0.242716 -4.980390 88.675500 4.202330 -72.489000 -5.348130 -0.000001 -0.000004 -70.489100 14.775700 -2.515320 -24.328900 0.000322 -0.000009 0.871506 2.022580 -23.341100 -22.291500 -0.000108 -0.000004 5.106970 5.280600 0.610023 -2.192480 -6.469440 -0.000000 -176.978000 -1.249080 -3.943280 39.081100 -0.000007 -0.000012 0.185888 -0.539856 19.000400 40.985400 -0.000006 -0.000013 2.956500 7.805810 -70.952500 11.754300 -0.000000 0.000003 0.000206 0.164076 -9.922130 -2.192510 6.469440 -0.000001 -175.511000 4.081460 -179.569000 -39.081100 -0.002282 -0.040193 0.017834 -0.070838 11.567000 -40.985400 0.000008 0.000006 -1.927280 3.771620 -67.567600 -11.754300 -0.000006 -0.000006 -0.013022 0.292649 -4.677090
0.000000 0.000000 0.000000 0.000000 0.000000 -0.000000 0.129431 93.081800 -0.955545 86.735500 -2.188790 -0.488198 15.735700 0.000005 -0.000001 77.950100 87.763600 -76.124600 8.984550 -0.406207 -0.000000 -3.371810 -1.110620 3.619470 16.377300 -0.000001 -0.000001 4.052210 3.857140 -0.804934 6.456720 -0.000001 -0.000000 3.282160 5.454910 -5.507640 12.994200 -0.242716 4.980390 -92.587200 8.097020 -72.213300 5.348090 -0.000007 -0.000001 -73.417100 27.818000 0.664096 24.328600 0.000019 0.000005 13.033700 28.512700 -25.870600 22.291600 -0.000001 0.000005 -3.127080 5.034070 6.586240 12.994500 -0.242716 -4.980390 88.689400 4.156570 -72.481900 -5.348130 -0.000001 -0.000004 -70.134100 12.951100 -2.303600 -24.328900 0.000322 -0.000009 1.271320 2.674310 -25.453400 -22.291500 -0.000108 -0.000004 5.637250 5.282730 0.551504 -2.192480 -6.469440 -0.000000 -176.967000 -1.244110 -3.982930 39.081100 -0.000007 -0.000012 0.186184 -0.541377 18.978800 40.985400 -0.000006 -0.000013 2.929610 7.758480 -70.916500 11.754300 -0.000000 0.000003 0.000167 0.164757 -9.894500 -2.192510 6.469440 -0.000001 -175.489000 4.127380 -179.616000 -39.081100 -0.002282 -0.040193 0.017411 -0.068987 11.531500 -40.985400 0.000008 0.000006 -1.919050 3.827430 -67.485400 -11.754300 -0.000006 -0.000006 -0.012785 0.291051 -4.742560
0.000000 0.000000 0.000000 0.000000 0.000000 -0.000000 0.115509 93.091500 -1.021480 86.726800 -2.194870 -0.581135 15.735700 0.000005 -0.000001 77.816000 87.762900 -75.985200 8.984550 -0.406207 -0.000000 -3.372440 -1.121660 3.629560 16.377300 -0.000001 -0.000001 3.898840 3.817960 -0.680638 6.456720 -0.000001 -0.000000 3.045650 5.426670 -5.227300 12.994200 -0.242716 4.980390 -92.583700 8.082890 -72.207300 5.348090 -0.000007 -0.000001 -73.452700 27.787500 0.628946 24.328600 0.000019 0.000005 13.018100 28.497400 -25.853700 22.291600 -0.000001 0.000005 -3.042160 5.033030 6.608860 12.994500 -0.242716 -4.980390 88.694900 4.116340 -72.391500 -5.348130 -0.000001 -0.000004 -69.747700 10.559500 -1.961800 -24.328900 0.000322 -0.000009 1.500840 2.791600 -28.295600 -22.291500 -0.000108 -0.000004 5.993380 5.274410 0.778719 -2.192480 -6.469440 -0.000000 -176.947000 -1.230310 -4.124310 39.081100 -0.000007 -0.000012 0.185474 -0.539400 18.976000 40.985400 -0.000006 -0.000013 2.900640 7.730200 -70.881900 11.754300 -0.000000 0.000003 0.000182 0.164494 -9.905170 -2.192510 6.469440 -0.000001 -175.466000 4.083880 -179.739000 -39.081100 -0.002282 -0.040193 0.017354 -0.068840 11.510100 -40.985400 0.000008 0.000006 -1.982170 3.872170 -67.438800 -11.754300 -0.000006 -0.000006 -0.012877 0.291675 -4.717010
0.000000 0.000000 0.000000 0.000000 0.000000 -0.000000 0.099530 93.089400 -1.072170 86.732700 -2.260000 -0.545918 15.735700 0.000005 -0.000001 77.338500 87.723500 -75.504500 8.984550 -0.406207 -0.000000 -3.302580 -1.174560 3.635040 16.377300 -0.000001 -0.000001 3.770840 3.777550 -0.491498 6.456720 -0.000001 -0.000000 2.807390 5.507890 -4.952950 12.994200 -0.242716 4.980390 -92.582700 8.069430 -72.186000 5.348090 -0.000007 -0.000001 -73.511300 27.670400 0.736898 24.328600 0.000019 0.000005 12.982600 28.361100 -25.889000 22.291600 -0.000001 0.000005 -2.973570 5.033910 6.589860 12.994500 -0.242716 -4.980390 88.702700 4.084160 -72.361500 -5.348130 -0.000001 -0.000004 -69.299000 8.035540 -1.589300 -24.328900 0.000322 -0.000009 1.679360 2.725840 -31.667800 -22.291500 -0.000108 -0.000004 6.165240 5.263930 1.061870 -2.192480 -6.469440 -0.000000 -176.955000 -1.211900 -4.138420 39.081100 -0.000007 -0.000012 0.186274 -0.540466 19.017100 40.985400 -0.000006 -0.000013 2.878380 7.642860 -70.836800 11.754300 -0.000000 0.000003 0.000274 0.162871 -9.971060 -2.192510 6.469440 -0.000001 -175.441000 4.092760 -179.772000 -39.081100 -0.002282 -0.040193 0.018945 -0.076238 11.570800 -40.985400 0.000008 0.000006 -1.785410 3.854230 -67.459200 -11.754300 -0.000006 -0.000006 -0.012944 0.292126 -4.698500
0.000000 0.000000 0.000000 0.000000 0.000000 -0.000000 0.074638 93.098800 -1.141320 86.705800 -2.299320 -0.571012 15.735700 0.000005 -0.000001 76.970800 87.699300 -75.119400 8.984550 -0.406207 -0.000000 -3.261140 -1.214930 3.668990 16.377300 -0.000001 -0.000001 3.644270 3.747970 -0.335509 6.456720 -0.000001 -0.000000 2.557290 5.517240 -4.551160 12.994200 -0.242716 4.980390 -92.571100 8.043060 -72.206700 5.348090 -0.000007 -0.000001 -73.564400 27.634300 0.766416 24.328600 0.000019 0.000005 13.017900 28.398800 -25.924800 22.291600 -0.000001 0.000005 -3.059150 5.029240 6.691240 12.994500 -0.242716 -4.980390 88.700600 4.081250 -72.322600 -5.348130 -0.000001 -0.000004 -68.815400 5.074760 -1.130490 -24.328900 0.000322 -0.000009 2.438150 3.379590 -35.849700 -22.291500 -0.000108 -0.000004 6.338190 5.253420 1.342140 -2.192480 -6.469440 -0.000000 -176.911000 -1.230990 -4.203180 39.081100 -0.000007 -0.000012 0.185963 -0.539313 19.025300 40.985400 -0.000006 -0.000013 2.851610 7.634160 -70.838300 11.754300 -0.000000 0.000003 0.000132 0.165380 -9.869210 -2.192510 6.469440 -0.000001 -175.406000 4.092780 -179.818000 -39.081100 -0.002282 -0.040193 0.018263 -0.073193 11.526900 -40.985400 0.000008 0.000006 -1.801530 3.921750 -67.415300 -11.754300 -0.000006 -0.000006 -0.012973 0.292319 -4.690610
